<svg xmlns="http://www.w3.org/2000/svg" width="32" height="32" viewBox="0 0 32 32"><g transform="translate(120.5 -1337.862)"><rect width="31" height="17" x="-120.5" y="1344.862" fill="#2dbca4" rx="1.5" ry="1.5"/><path fill="#15a78f" d="m -115.5,1346.8622 a 3.0000088,3.0000088 0 0 1 -3,3 l 0,7 a 3.0000088,3.0000088 0 0 1 3,3 l 21,0 a 3.0000088,3.0000088 0 0 1 3,-3 l 0,-7 a 3.0000088,3.0000088 0 0 1 -3,-3 l -21,0 z"/><circle cx="-115" cy="1353.362" r=".5" fill="#2dbca4" stroke="#0c5286" stroke-linecap="round" stroke-miterlimit="3.7"/><circle cx="-95" cy="1353.362" r=".5" fill="#2dbca4" stroke="#0c5286" stroke-linecap="round" stroke-miterlimit="3.7"/><path fill="#2dbca4" d="m -99.5,1353.3619 c 0,3.0357 -2.47379,5.5003 -5.51606,5.5003 -3.04313,0 -5.48394,-2.4646 -5.48394,-5.5003 0,-3.035 2.44081,-5.4997 5.48394,-5.4997 3.04227,0 5.51606,2.4647 5.51606,5.4997 l 0,0 z"/><path fill="#0c5286" style="line-height:normal;text-indent:0;text-align:start;text-decoration-line:none;text-decoration-style:solid;text-decoration-color:#000;text-transform:none;block-progression:tb;isolation:auto;mix-blend-mode:normal" d="m -105.49023,327.99805 0,1.1914 c -0.37873,0.065 -0.74576,0.20508 -1.06446,0.44141 -0.70152,0.49467 -1.07246,1.39862 -0.8125,2.25586 0.29684,1.03368 1.31225,1.63161 2.31055,1.61328 l 0.12109,0 a 0.50004995,0.50004995 0 0 0 0.0117,0 c 0.57115,-0.0111 1.18786,0.37213 1.33594,0.89258 a 0.50004995,0.50004995 0 0 0 0.002,0.0117 c 0.12202,0.39734 -0.0752,0.90769 -0.43164,1.15625 a 0.50004995,0.50004995 0 0 0 -0.0156,0.01 c -0.60056,0.44823 -1.64729,0.32727 -2.08203,-0.27929 -0.12814,-0.17656 -0.2019,-0.39698 -0.20118,-0.60743 l -1,0 c -10e-4,0.43368 0.14201,0.85098 0.39063,1.19532 0.3557,0.49625 0.87579,0.79785 1.43555,0.91992 l 0,1.20117 1,0 0,-1.18359 c 0.37199,-0.0664 0.73362,-0.20363 1.04687,-0.43555 0.70303,-0.49434 1.07472,-1.39751 0.81445,-2.25586 -0.29682,-1.03379 -1.31619,-1.63161 -2.31445,-1.61328 l -0.11914,0 a 0.50004995,0.50004995 0 0 0 -0.0117,0 c -0.57111,0.0111 -1.18587,-0.37202 -1.33398,-0.89258 a 0.50004995,0.50004995 0 0 0 -0.002,-0.0117 c -0.12196,-0.39723 0.0755,-0.9078 0.43164,-1.15625 a 0.50004995,0.50004995 0 0 0 0.0137,-0.0117 c 0.60047,-0.44823 1.6454,-0.32542 2.08007,0.28125 a 0.50004995,0.50004995 0 0 0 0.002,0 c 0.12824,0.17678 0.20202,0.39731 0.20117,0.60742 l 1,0 c 0.002,-0.434 -0.14014,-0.85119 -0.38867,-1.19531 -0.35207,-0.4913 -0.86617,-0.79076 -1.41992,-0.91601 l 0,-1.21875 -1,0 z" color="#000" font-family="sans-serif" font-weight="400" overflow="visible" transform="translate(0 1020.362)"/></g></svg>